<svg xmlns="http://www.w3.org/2000/svg" viewBox="0 0 127 231" width="127" height="231">
	<defs>
		<clipPath clipPathUnits="userSpaceOnUse" id="cp1">
			<path d="M-56 -35L191 -35L191 258L-56 258Z" />
		</clipPath>
	</defs>
	<style>
		tspan { white-space:pre }
		.shp0 { fill: #d1282a } 
		.shp1 { fill: #142b64 } 
	</style>
	<g id="Page 1" clip-path="url(#cp1)">
		<path id="Path 1" class="shp0" d="M45.82 229.88C59.01 226.03 72.03 217.99 79.75 204.79C86.08 193.97 86.73 181 82.64 171.82C77.39 160.07 66.35 153.91 55.84 147.81C50.67 144.8 45.56 141.64 41.23 137.54C40.98 137.31 40.74 137.07 40.49 136.82C40.42 136.75 40.35 136.68 40.28 136.61C39.82 136.05 39.31 135.54 38.84 134.98C37.95 133.9 37.13 132.75 36.39 131.55C36.03 130.97 35.7 130.37 35.38 129.76C35.34 129.68 35.32 129.64 35.29 129.59C35.28 129.57 35.28 129.56 35.26 129.53C35.11 129.17 34.94 128.81 34.8 128.44C34.66 128.1 34.56 127.75 34.44 127.41C37.14 127.42 39.84 127.44 42.54 127.45C44.87 127.46 47.63 125.28 48.14 122.71C48.66 120.13 47.34 117.94 44.84 117.93C40.91 117.92 36.98 117.9 33.05 117.88C33.05 117.79 33.04 117.71 33.05 117.62C33.07 117.19 33.09 116.76 33.12 116.33C33.14 116.1 33.2 115.51 33.22 115.34C33.4 113.98 33.62 112.62 33.98 111.25C34.11 110.75 34.25 110.24 34.41 109.74C34.49 109.49 34.58 109.25 34.66 109L34.66 108.99C34.85 108.53 35.05 108.08 35.25 107.63C44.96 107.67 54.67 107.72 64.38 107.76C65.83 107.77 67.28 107.77 68.73 107.78C71.06 107.79 73.82 105.61 74.34 103.04C74.85 100.46 73.53 98.28 71.04 98.26C61.18 98.22 51.32 98.17 41.45 98.13C41.62 97.94 41.77 97.75 41.94 97.57C42.03 97.47 42.13 97.36 42.23 97.26C42.24 97.25 42.24 97.25 42.26 97.23C42.61 96.9 42.95 96.55 43.3 96.23C44.09 95.49 44.9 94.79 45.73 94.11C46.56 93.44 47.41 92.83 48.25 92.2C48.27 92.19 48.27 92.19 48.28 92.18C48.5 92.04 48.71 91.89 48.93 91.75C49.47 91.4 50.03 91.06 50.58 90.73C52.85 89.37 54.56 86.48 53.75 84.23C53.01 82.16 50.51 81.04 48.08 82.5C40.56 87 34.09 93.11 29.47 100.81C25.94 106.69 24.35 112.86 23.91 119.01C23.4 126.23 25.15 132.84 28.46 138.25C31.63 143.41 36.22 147.43 41.09 150.82C46.05 154.28 51.46 157.09 56.63 160.25C59.16 161.8 61.65 163.44 64 165.25C65.14 166.13 66.25 167.06 67.32 168.04C67.8 168.49 68.27 168.95 68.74 169.41C68.82 169.5 68.91 169.59 68.99 169.69C69.26 169.98 69.52 170.27 69.77 170.56C70.68 171.63 71.53 172.76 72.29 173.95C72.66 174.52 73.01 175.1 73.33 175.71C73.43 175.89 73.55 176.07 73.65 176.26C73.61 176.17 73.59 176.14 73.66 176.32C73.76 176.55 73.87 176.77 73.96 177C74.19 177.52 74.38 178.06 74.57 178.61C65.91 178.57 57.25 178.53 48.59 178.49C47.1 178.48 45.62 178.47 44.13 178.47C41.8 178.46 39.04 180.63 38.53 183.2C38.01 185.78 39.33 187.97 41.82 187.98C52.31 188.03 62.8 188.08 73.29 188.13L75.93 188.14C75.91 188.83 75.88 189.52 75.82 190.22C75.81 190.28 75.8 190.46 75.78 190.6C75.78 190.64 75.77 190.66 75.77 190.68C75.71 191.14 75.64 191.59 75.56 192.06C75.45 192.71 75.33 193.37 75.18 194.03C75.01 194.82 74.79 195.61 74.53 196.39C74.49 196.52 74.38 196.83 74.3 197.07C74.3 197.07 74.3 197.07 74.3 197.08C74.2 197.33 74.09 197.58 73.99 197.83C73.91 198.02 73.8 198.2 73.72 198.39C69.73 198.37 65.73 198.36 61.74 198.34C59.41 198.33 56.65 200.5 56.14 203.08C55.62 205.66 56.94 207.84 59.43 207.85C62.13 207.87 64.83 207.88 67.52 207.89C67.41 208.02 67.29 208.15 67.18 208.28C67.02 208.45 66.12 209.43 66.72 208.77C67.3 208.13 66.51 208.98 66.33 209.15C66.07 209.4 65.81 209.65 65.55 209.89C64.96 210.43 64.36 210.96 63.75 211.47C63.16 211.96 62.56 212.44 61.94 212.91C61.62 213.14 61.31 213.38 60.98 213.61C60.87 213.69 60.75 213.77 60.64 213.85C60.64 213.86 60.64 213.85 60.64 213.86C59.11 214.75 57.63 215.74 56.07 216.56C55.26 216.99 54.45 217.39 53.63 217.77C53.21 217.97 52.78 218.16 52.36 218.35C52.17 218.43 51.98 218.51 51.8 218.59C51.8 218.59 51.3 218.79 51.13 218.86C51.1 218.87 51.07 218.89 51.06 218.89C50.79 218.99 50.53 219.09 50.27 219.19C49.8 219.36 49.32 219.53 48.85 219.69C47.79 220.05 46.73 220.38 45.67 220.69C43.27 221.39 41 224.05 41.15 226.53C41.29 228.94 43.24 230.63 45.82 229.88Z" />
		<path id="Path 2" class="shp1" d="M79.14 148.26C86.65 143.75 93.13 137.64 97.75 129.95C101.28 124.06 102.87 117.89 103.3 111.74C103.81 104.52 102.07 97.91 98.75 92.51C95.59 87.34 90.99 83.32 86.13 79.93C81.17 76.48 75.76 73.66 70.59 70.5C68.05 68.95 65.56 67.31 63.22 65.5C62.07 64.62 60.96 63.69 59.89 62.71C59.41 62.27 58.95 61.8 58.48 61.34C58.39 61.25 58.3 61.16 58.22 61.06C57.96 60.78 57.7 60.48 57.44 60.19C56.53 59.12 55.69 58 54.92 56.8C54.55 56.23 54.21 55.65 53.88 55.05C53.78 54.87 53.67 54.68 53.57 54.49C53.61 54.58 53.63 54.62 53.55 54.43C53.46 54.2 53.35 53.98 53.25 53.76C53.03 53.23 52.83 52.69 52.64 52.14C61.3 52.19 69.96 52.22 78.63 52.27C80.11 52.27 81.6 52.28 83.08 52.29C85.41 52.3 88.17 50.12 88.69 47.55C89.2 44.97 87.89 42.78 85.39 42.77C74.9 42.72 64.41 42.67 53.92 42.62L51.28 42.61C51.3 41.92 51.33 41.23 51.4 40.53C51.4 40.47 51.42 40.29 51.43 40.14C51.44 40.11 51.44 40.09 51.44 40.08C51.51 39.62 51.57 39.16 51.65 38.7C51.76 38.04 51.88 37.38 52.03 36.72C52.21 35.93 52.43 35.14 52.68 34.36C52.72 34.23 52.83 33.92 52.91 33.69C52.92 33.68 52.92 33.68 52.92 33.68C53.02 33.43 53.12 33.18 53.22 32.93C53.31 32.74 53.41 32.55 53.5 32.36C57.49 32.38 61.48 32.4 65.47 32.41C67.8 32.42 70.56 30.25 71.08 27.68C71.6 25.1 70.28 22.91 67.78 22.9C65.08 22.88 62.39 22.87 59.69 22.86C59.81 22.73 59.92 22.6 60.04 22.47C60.19 22.3 61.09 21.32 60.49 21.98C59.91 22.62 60.71 21.78 60.88 21.61C61.14 21.35 61.4 21.11 61.67 20.86C62.25 20.32 62.85 19.79 63.46 19.29C64.05 18.79 64.66 18.31 65.27 17.85C65.59 17.61 65.91 17.37 66.23 17.14C66.35 17.06 66.46 16.98 66.58 16.9C68.11 16 69.58 15.01 71.14 14.19C71.95 13.77 72.76 13.36 73.58 12.98C74 12.78 74.43 12.59 74.86 12.41C75.04 12.32 75.23 12.24 75.42 12.16C75.41 12.17 75.91 11.96 76.08 11.89C76.11 11.88 76.15 11.87 76.16 11.86C76.42 11.76 76.68 11.66 76.95 11.56C77.42 11.39 77.89 11.22 78.36 11.06C79.42 10.7 80.48 10.37 81.54 10.06C83.94 9.36 86.22 6.71 86.07 4.22C85.92 1.81 83.97 0.12 81.4 0.87C68.2 4.72 55.18 12.76 47.47 25.96C41.14 36.78 40.48 49.75 44.58 58.93C49.82 70.68 60.86 76.85 71.37 82.95C76.54 85.95 81.66 89.12 85.98 93.21C86.23 93.45 86.48 93.69 86.72 93.93C86.79 94 86.86 94.07 86.93 94.14C87.4 94.7 87.91 95.22 88.37 95.78C89.26 96.86 90.09 98 90.83 99.21C91.18 99.79 91.51 100.38 91.83 100.99C91.88 101.07 91.9 101.11 91.93 101.16C91.93 101.18 91.94 101.19 91.95 101.22C92.11 101.58 92.27 101.94 92.42 102.31C92.55 102.65 92.66 103 92.78 103.34C90.08 103.33 87.38 103.31 84.68 103.3C82.35 103.29 79.59 105.47 79.07 108.04C78.56 110.62 79.88 112.81 82.37 112.82C86.3 112.84 90.24 112.86 94.17 112.87C94.16 112.96 94.17 113.05 94.17 113.13C94.15 113.56 94.12 113.99 94.09 114.42C94.07 114.65 94.01 115.24 93.99 115.41C93.81 116.77 93.59 118.14 93.24 119.5C93.11 120.01 92.96 120.51 92.8 121.01C92.72 121.26 92.64 121.51 92.56 121.75C92.55 121.76 92.55 121.76 92.55 121.77C92.37 122.22 92.16 122.67 91.96 123.13C82.25 123.08 72.54 123.04 62.83 122.99C61.38 122.98 59.93 122.98 58.48 122.97C56.15 122.96 53.39 125.14 52.88 127.71C52.36 130.29 53.68 132.48 56.18 132.49C66.04 132.53 75.9 132.58 85.76 132.63C85.6 132.81 85.45 133 85.28 133.18C85.18 133.29 85.08 133.39 84.98 133.49C84.97 133.5 84.97 133.51 84.95 133.52C84.6 133.85 84.26 134.2 83.91 134.53C83.12 135.26 82.31 135.97 81.48 136.64C80.66 137.31 79.8 137.92 78.96 138.55C78.94 138.56 78.95 138.56 78.93 138.57C78.72 138.72 78.5 138.86 78.29 139C77.74 139.35 77.19 139.69 76.64 140.02C74.36 141.38 72.65 144.27 73.46 146.52C74.21 148.6 76.7 149.72 79.14 148.26ZM47.34 200.93C47.85 198.35 46.53 196.16 44.04 196.15C33.03 196.1 22.02 196.05 11.01 195.99L9.65 195.99C9.65 195.89 9.65 195.8 9.65 195.7C9.67 195.38 9.7 195.05 9.72 194.73C9.74 194.73 9.86 193.72 9.89 193.57C10.19 191.87 10.71 190.18 11.28 188.49C11.36 188.29 11.63 187.53 11.69 187.39C11.85 187 12.01 186.61 12.18 186.22C12.25 186.06 12.34 185.9 12.42 185.74C16.57 185.76 20.73 185.78 24.88 185.8C27.21 185.81 29.97 183.63 30.48 181.06C31 178.48 29.68 176.29 27.19 176.28L18.39 176.24C18.75 175.82 19.09 175.39 19.46 174.99C19.68 174.73 19.92 174.49 20.15 174.24C20.25 174.14 20.68 173.69 20.8 173.57C21.5 172.89 22.21 172.23 22.93 171.6C24.3 170.39 25.71 169.26 27.16 168.2C27.57 167.89 28 167.58 28.42 167.29C28.52 167.21 29.02 166.88 29.07 166.85C29.79 166.38 30.52 165.9 31.25 165.44C33.5 164.04 35.24 161.22 34.42 158.94C33.69 156.9 31.16 155.7 28.75 157.2C21.45 161.75 14.39 167.42 9.29 174.74C3.44 183.14 -0.17 193.02 0.52 201.98C0.68 204.06 2 205.46 4.03 205.43C4.01 205.45 3.98 205.47 3.96 205.49C14.97 205.54 25.98 205.59 36.99 205.64C38.57 205.65 40.15 205.66 41.73 205.66C44.06 205.67 46.82 203.5 47.34 200.93Z" />
		<path id="Path 3" class="shp0" d="M98.47 73.55C105.77 69 112.83 63.34 117.93 56.01C123.77 47.61 127.39 37.74 126.7 28.77C126.54 26.7 125.22 25.29 123.18 25.32C123.21 25.3 123.23 25.28 123.25 25.26C112.24 25.21 101.24 25.16 90.23 25.11C88.64 25.1 87.06 25.09 85.48 25.09C83.15 25.08 80.39 27.26 79.88 29.83C79.36 32.41 80.68 34.59 83.17 34.6C94.18 34.66 105.19 34.71 116.2 34.76L117.57 34.76C117.56 34.86 117.57 34.96 117.56 35.06C117.55 35.38 117.52 35.7 117.49 36.02C117.48 36.02 117.35 37.03 117.32 37.18C117.02 38.88 116.5 40.57 115.93 42.26C115.85 42.47 115.58 43.22 115.52 43.36C115.36 43.75 115.2 44.14 115.03 44.53C114.96 44.69 114.87 44.85 114.8 45.01C110.64 45 106.49 44.98 102.33 44.96C100.01 44.94 97.24 47.12 96.73 49.69C96.21 52.27 97.53 54.46 100.03 54.47C102.96 54.49 105.89 54.5 108.82 54.51C108.47 54.93 108.12 55.36 107.76 55.76C107.53 56.02 107.29 56.27 107.06 56.52C106.96 56.62 106.53 57.06 106.41 57.18C105.72 57.86 105.01 58.52 104.28 59.16C102.92 60.36 101.51 61.49 100.06 62.56C99.64 62.87 99.22 63.17 98.8 63.47C98.69 63.54 98.2 63.86 98.15 63.9C97.42 64.37 96.7 64.85 95.96 65.31C93.71 66.72 91.97 69.53 92.79 71.81C93.52 73.85 96.05 75.05 98.47 73.55Z" />
	</g>
</svg>