<svg xmlns="http://www.w3.org/2000/svg" viewBox="0 0 63.18 114.68"><defs><style>.a{fill:#c02032;}.b{fill:#212f64;}</style></defs><title>icon-fitted</title><path class="a" d="M22.69,114.59c6.6-1.92,13.11-5.94,17-12.54,3.16-5.41,3.49-11.9,1.44-16.49-2.62-5.87-8.14-9-13.39-12a38.31,38.31,0,0,1-7.31-5.14L20,68.07a1.14,1.14,0,0,0-.11-.11c-.23-.28-.48-.54-.71-.82A14.81,14.81,0,0,1,18,65.43q-.27-.44-.51-.9l0-.08v0l-.24-.55c-.07-.16-.12-.34-.18-.51l4.05,0A3.15,3.15,0,0,0,23.85,61a1.79,1.79,0,0,0-1.65-2.39l-5.89,0v-.13l0-.64c0-.11.05-.41.05-.5a18.7,18.7,0,0,1,.38-2c.07-.25.14-.51.22-.76l.12-.36h0c.09-.23.19-.46.29-.68L32,53.53h2.18A3.14,3.14,0,0,0,37,51.17a1.79,1.79,0,0,0-1.65-2.38l-14.79-.07.24-.28.15-.16h0c.18-.16.35-.34.52-.5.4-.37.8-.72,1.22-1.06s.84-.64,1.26-1h0l.33-.21c.27-.18.55-.34.82-.51,1.14-.68,2-2.13,1.59-3.25a1.87,1.87,0,0,0-2.84-.87,26.73,26.73,0,0,0-9.3,9.16,20.09,20.09,0,0,0-2.78,9.1A16.14,16.14,0,0,0,14,68.78a21.74,21.74,0,0,0,6.32,6.28c2.48,1.73,5.18,3.14,7.77,4.72a40.33,40.33,0,0,1,3.68,2.5c.57.44,1.13.9,1.66,1.39.25.23.48.46.71.69l.13.14.39.44a15.14,15.14,0,0,1,1.26,1.69c.18.28.36.58.52.88l.16.27s0-.06,0,0,.11.23.16.34.2.54.3.81l-13-.06H21.85a3.12,3.12,0,0,0-2.8,2.37,1.79,1.79,0,0,0,1.65,2.39l15.73.07h1.32c0,.35,0,.69-.06,1a1.91,1.91,0,0,1,0,.2v0c0,.23-.07.46-.1.69s-.12.66-.19,1-.2.79-.33,1.18l-.12.34h0l-.15.38c0,.09-.09.18-.14.28l-6,0a3.17,3.17,0,0,0-2.8,2.37,1.79,1.79,0,0,0,1.65,2.39l4,0-.18.19c-.08.09-.53.58-.22.25s-.11.1-.2.19l-.39.37-.9.79-.91.72-.47.35-.18.12h0c-.76.45-1.5.94-2.28,1.36-.4.21-.81.41-1.22.6l-.64.29-.28.12-.33.13,0,0-.39.15-.71.25c-.53.18-1.06.34-1.59.5a3.21,3.21,0,0,0-2.26,2.92,1.75,1.75,0,0,0,2.33,1.67"/><path class="b" d="M39.35,73.78a26.82,26.82,0,0,0,9.31-9.15,20.28,20.28,0,0,0,2.78-9.1,16.1,16.1,0,0,0-2.28-9.62,21.74,21.74,0,0,0-6.31-6.29c-2.48-1.73-5.19-3.13-7.77-4.72a41.81,41.81,0,0,1-3.69-2.49c-.57-.45-1.13-.91-1.66-1.4-.24-.22-.47-.46-.71-.69a1.59,1.59,0,0,0-.13-.13c-.13-.15-.26-.29-.38-.44a14.83,14.83,0,0,1-1.26-1.69c-.19-.29-.36-.58-.53-.88,0-.09-.1-.19-.15-.28s0,.06,0,0l-.15-.34c-.11-.26-.21-.53-.31-.8l13,.06h2.23a3.17,3.17,0,0,0,2.8-2.37c.26-1.29-.4-2.39-1.65-2.39L26.74,21H25.42c0-.35,0-.69.06-1,0,0,0-.12,0-.19v0c0-.23.06-.46.1-.69s.11-.66.19-1,.2-.78.33-1.18l.11-.33h0c.05-.12.1-.25.16-.37s.09-.19.13-.29l6,0a3.12,3.12,0,0,0,2.8-2.37,1.79,1.79,0,0,0-1.65-2.39l-4,0,.17-.19.23-.25c-.29.32.11-.1.2-.18l.39-.38c.29-.27.59-.53.89-.78s.6-.49.91-.72l.48-.36.17-.12c.77-.44,1.51-.94,2.29-1.35l1.21-.61.64-.28.28-.12.34-.14h0l.4-.15L39,5.18c.52-.18,1.05-.34,1.58-.5a3.22,3.22,0,0,0,2.27-2.92A1.76,1.76,0,0,0,40.48.09c-6.59,1.92-13.1,6-17,12.54C20.35,18,20,24.53,22.07,29.12c2.63,5.87,8.15,9,13.4,12a38.5,38.5,0,0,1,7.3,5.13l.38.36.1.1c.23.28.49.54.72.82a14.11,14.11,0,0,1,1.23,1.72c.18.29.34.59.5.89a.28.28,0,0,0,0,.08,0,0,0,0,0,0,0c.08.18.16.37.23.55s.12.34.18.51l-4.05,0a3.17,3.17,0,0,0-2.8,2.37c-.26,1.29.4,2.39,1.65,2.39l5.9,0v.13c0,.21,0,.43,0,.64s0,.42,0,.5a16.24,16.24,0,0,1-.38,2c-.06.26-.13.51-.21.76l-.13.37h0l-.29.68L31.2,61.15H29a3.14,3.14,0,0,0-2.8,2.37,1.79,1.79,0,0,0,1.65,2.39l14.8.07-.25.27a1.07,1.07,0,0,1-.14.16h0l-.52.51c-.39.36-.8.72-1.21,1s-.84.64-1.27,1h0l-.32.21c-.28.18-.55.35-.83.51-1.13.68-2,2.13-1.58,3.26a1.87,1.87,0,0,0,2.83.86"/><path class="b" d="M23.45,100.12c.26-1.29-.4-2.39-1.65-2.39L5.29,97.65H4.61V97.5c0-.16,0-.32,0-.48l.08-.58a16.84,16.84,0,0,1,.7-2.54c0-.1.17-.48.2-.55s.16-.39.25-.58S6,92.6,6,92.52l6.23,0A3.14,3.14,0,0,0,15,90.18a1.8,1.8,0,0,0-1.65-2.39l-4.4,0c.18-.21.35-.42.53-.62l.35-.38.33-.33c.34-.34.7-.67,1.06-1,.68-.6,1.39-1.16,2.11-1.7.21-.15.42-.31.63-.45l.33-.22c.36-.24.72-.48,1.09-.71,1.13-.7,2-2.11,1.59-3.25a1.87,1.87,0,0,0-2.84-.86A32.53,32.53,0,0,0,4.43,87C1.51,91.22-.3,96.16,0,100.64a1.75,1.75,0,0,0,1.73,1.76l16.51.07,2.37,0a3.15,3.15,0,0,0,2.8-2.37"/><path class="a" d="M49,36.44a32.8,32.8,0,0,0,9.73-8.77c2.92-4.2,4.73-9.14,4.38-13.62a1.7,1.7,0,0,0-1.72-1.76L44.9,12.22H42.52a3.14,3.14,0,0,0-2.8,2.37A1.79,1.79,0,0,0,41.37,17L57.88,17h.69v.15c0,.16,0,.32,0,.48,0,0-.07.51-.08.58a17.29,17.29,0,0,1-.7,2.55l-.2.54c-.08.2-.17.39-.25.59l-.12.24-6.23,0a3.17,3.17,0,0,0-2.8,2.37A1.79,1.79,0,0,0,49.8,26.9l4.39,0c-.17.21-.34.42-.53.63l-.35.37-.32.33c-.35.34-.7.67-1.06,1-.69.6-1.39,1.17-2.12,1.7l-.63.46-.32.21-1.09.71c-1.13.7-2,2.11-1.59,3.25a1.9,1.9,0,0,0,2.84.87"/></svg>