<svg xmlns="http://www.w3.org/2000/svg" viewBox="0 0 114.68 114.68"><defs><style>.a{fill:#c02032;}.b{fill:#212f64;}</style></defs><title>icon-fitted-square</title><path class="a" d="M48.44,114.59c6.6-1.92,13.11-5.94,17-12.54,3.16-5.41,3.49-11.9,1.44-16.49-2.62-5.87-8.14-9-13.39-12a38.26,38.26,0,0,1-7.31-5.13l-.37-.36-.11-.1c-.23-.28-.48-.54-.71-.82a14.11,14.11,0,0,1-1.23-1.72c-.18-.29-.34-.58-.51-.89l0-.08v0l-.24-.55-.18-.51,4,0A3.17,3.17,0,0,0,49.61,61c.25-1.29-.41-2.39-1.65-2.39l-5.9,0v-.13c0-.21,0-.43,0-.64s0-.42,0-.5c.1-.68.21-1.36.38-2,.07-.26.14-.51.22-.76l.12-.37h0l.29-.68,14.56.07H59.9a3.12,3.12,0,0,0,2.8-2.37,1.79,1.79,0,0,0-1.65-2.39l-14.79-.06.24-.28.15-.16h0l.52-.51c.39-.36.8-.72,1.21-1s.84-.64,1.26-1h0l.32-.21c.27-.18.55-.35.82-.51,1.14-.68,2-2.13,1.59-3.25a1.87,1.87,0,0,0-2.84-.87,26.82,26.82,0,0,0-9.3,9.16,20.08,20.08,0,0,0-2.78,9.09,16.22,16.22,0,0,0,2.27,9.63,21.86,21.86,0,0,0,6.32,6.28c2.48,1.73,5.18,3.14,7.77,4.72a38.39,38.39,0,0,1,3.68,2.5c.58.44,1.13.9,1.66,1.39.25.22.48.46.71.69a.86.86,0,0,1,.13.14l.39.43a17.24,17.24,0,0,1,1.26,1.69c.18.29.36.58.52.88l.16.28s0-.06,0,0a3.49,3.49,0,0,0,.15.34c.11.26.21.53.3.8l-13,0-2.23,0a3.17,3.17,0,0,0-2.8,2.37c-.26,1.29.4,2.39,1.65,2.39l15.73.08H63.5c0,.35,0,.69-.06,1,0,0,0,.12,0,.19v0c0,.23-.07.46-.1.69s-.12.66-.19,1-.2.78-.33,1.18c0,.06-.07.22-.12.33h0l-.15.37c0,.1-.09.19-.14.29l-6,0a3.16,3.16,0,0,0-2.8,2.37,1.79,1.79,0,0,0,1.65,2.39l4,0-.18.19c-.07.09-.52.58-.22.25s-.11.1-.2.18l-.39.38c-.3.27-.59.53-.9.79l-.9.71-.48.36-.18.12h0c-.76.45-1.5.94-2.28,1.35-.4.22-.81.42-1.22.61l-.64.28-.28.13-.33.13,0,0-.39.14-.71.26c-.53.18-1.06.34-1.59.5a3.2,3.2,0,0,0-2.26,2.92,1.75,1.75,0,0,0,2.33,1.67"/><path class="b" d="M65.1,73.78a26.76,26.76,0,0,0,9.31-9.16,20.21,20.21,0,0,0,2.78-9.1,16.14,16.14,0,0,0-2.28-9.62,21.7,21.7,0,0,0-6.31-6.28c-2.48-1.73-5.19-3.14-7.77-4.72a39.83,39.83,0,0,1-3.69-2.5C56.57,32,56,31.5,55.48,31c-.24-.22-.47-.46-.71-.69l-.13-.14-.38-.43A14.94,14.94,0,0,1,53,28.05c-.19-.28-.36-.57-.53-.88l-.15-.27s0,.06,0,0l-.15-.34c-.11-.26-.21-.53-.31-.81l13,.06h2.23a3.15,3.15,0,0,0,2.8-2.36c.26-1.29-.4-2.39-1.65-2.39L52.49,21H51.17c0-.35,0-.69.06-1,0,0,0-.13,0-.2v0c0-.23.06-.46.1-.69s.11-.66.19-1,.2-.79.33-1.18L52,16.5h0c0-.13.1-.25.16-.37s.09-.19.13-.29l6,0a3.15,3.15,0,0,0,2.8-2.37,1.79,1.79,0,0,0-1.65-2.39l-4,0,.17-.19.23-.25c-.29.32.11-.1.2-.19l.39-.37c.29-.27.59-.53.89-.79s.6-.48.91-.71l.48-.36.17-.12c.77-.45,1.51-.94,2.29-1.35.4-.22.81-.42,1.21-.61L63,5.85l.28-.12.34-.13,0,0,.4-.15.71-.25c.52-.18,1-.34,1.58-.5a3.22,3.22,0,0,0,2.27-2.92A1.75,1.75,0,0,0,66.23.09C59.64,2,53.13,6,49.27,12.63c-3.17,5.41-3.5,11.9-1.45,16.49,2.63,5.87,8.15,9,13.4,12a39,39,0,0,1,7.3,5.14c.13.11.25.23.38.36l.1.1c.23.28.49.54.72.82A14.81,14.81,0,0,1,71,49.25c.18.29.34.59.5.9a.28.28,0,0,0,0,.08,0,0,0,0,0,0,0c.08.18.16.36.23.55s.12.34.18.51l-4,0a3.17,3.17,0,0,0-2.8,2.37,1.79,1.79,0,0,0,1.65,2.39l5.9,0v.13c0,.21,0,.43,0,.64s0,.41,0,.5a16.24,16.24,0,0,1-.38,2c-.06.25-.13.51-.21.76s-.09.24-.13.37h0c-.09.22-.19.45-.29.67L57,61.15H54.77A3.14,3.14,0,0,0,52,63.51a1.79,1.79,0,0,0,1.65,2.39l14.8.06c-.09.09-.16.19-.25.28L68,66.4h0c-.18.17-.34.34-.52.5-.39.37-.8.72-1.21,1.06s-.84.64-1.27,1h0l-.32.21c-.28.18-.55.35-.83.51-1.13.68-2,2.13-1.58,3.25a1.87,1.87,0,0,0,2.83.87"/><path class="b" d="M49.2,100.11a1.8,1.8,0,0,0-1.65-2.39L31,97.65h-.68V97.5c0-.16,0-.32,0-.48l.08-.58a17.29,17.29,0,0,1,.7-2.55c0-.09.17-.47.2-.54s.16-.39.25-.59.08-.16.11-.24l6.23,0a3.16,3.16,0,0,0,2.81-2.37,1.8,1.8,0,0,0-1.65-2.39l-4.4,0c.18-.21.35-.42.53-.62s.23-.26.35-.38l.33-.33c.34-.34.7-.67,1.06-1,.68-.6,1.39-1.17,2.11-1.7l.63-.46.33-.21c.36-.24.72-.48,1.09-.71,1.13-.7,2-2.11,1.59-3.25a1.88,1.88,0,0,0-2.84-.87A32.8,32.8,0,0,0,30.18,87c-2.92,4.2-4.73,9.14-4.39,13.62a1.75,1.75,0,0,0,1.73,1.76l16.51.07H46.4a3.12,3.12,0,0,0,2.8-2.37"/><path class="a" d="M74.77,36.44a32.8,32.8,0,0,0,9.73-8.77c2.92-4.2,4.73-9.14,4.38-13.62a1.7,1.7,0,0,0-1.72-1.76l-16.51-.07H68.28a3.15,3.15,0,0,0-2.81,2.36c-.25,1.29.4,2.39,1.65,2.39L83.63,17h.69v.15c0,.16,0,.32,0,.48,0,0-.07.5-.08.58a16.84,16.84,0,0,1-.7,2.54c0,.1-.18.48-.2.55s-.16.39-.25.58a1.92,1.92,0,0,1-.12.25l-6.23,0a3.14,3.14,0,0,0-2.8,2.37,1.79,1.79,0,0,0,1.65,2.39l4.4,0c-.18.21-.35.42-.54.62l-.34.38-.33.33c-.35.34-.7.67-1.06,1-.68.6-1.39,1.17-2.12,1.7l-.63.46-.32.21-1.09.71c-1.13.7-2,2.11-1.59,3.25a1.9,1.9,0,0,0,2.84.87"/></svg>