<svg xmlns="http://www.w3.org/2000/svg" viewBox="0 0 813 163" width="813" height="163">
	<defs>
		<clipPath clipPathUnits="userSpaceOnUse" id="cp1">
			<path d="M-90 -69L910 -69L910 224L-90 224Z" />
		</clipPath>
	</defs>
	<style>
		tspan { white-space:pre }
		.shp0 { fill: #d1282a } 
		.shp1 { fill: #142b64 } 
		.txt2 { font-size: 165px;fill: #142b64;font-weight: 400;font-family: "BebasNeueRegular", "Bebas Neue" } 
		.txt3 { font-size: 165px;fill: #d1282a;font-weight: 400;font-family: "BebasNeueRegular", "Bebas Neue" } 
	</style>
	<g id="Page 1" clip-path="url(#cp1)">
		<path id="Path 1" class="shp0" d="M32.32 162.68C41.69 159.95 50.93 154.24 56.41 144.87C60.9 137.18 61.37 127.97 58.46 121.46C54.74 113.11 46.9 108.73 39.44 104.4C35.77 102.27 32.13 100.02 29.06 97.12C28.89 96.95 28.71 96.78 28.54 96.61C28.49 96.55 28.44 96.5 28.39 96.45C28.06 96.06 27.69 95.69 27.37 95.29C26.73 94.53 26.15 93.72 25.62 92.86C25.37 92.45 25.14 92.02 24.91 91.59C24.88 91.54 24.86 91.5 24.84 91.47C24.84 91.46 24.83 91.45 24.82 91.43C24.71 91.17 24.6 90.91 24.49 90.65C24.4 90.41 24.32 90.17 24.24 89.92C26.15 89.93 28.07 89.94 29.99 89.95C31.64 89.96 33.6 88.41 33.97 86.58C34.33 84.75 33.4 83.2 31.63 83.19C28.83 83.18 26.04 83.17 23.25 83.15C23.25 83.09 23.25 83.03 23.25 82.97C23.26 82.67 23.28 82.36 23.3 82.05C23.32 81.89 23.36 81.47 23.37 81.35C23.5 80.39 23.66 79.42 23.91 78.45C24 78.09 24.11 77.73 24.22 77.37C24.27 77.2 24.34 77.03 24.39 76.85C24.4 76.85 24.4 76.85 24.4 76.84C24.53 76.51 24.67 76.19 24.82 75.88C31.71 75.9 38.6 75.94 45.5 75.97C46.53 75.97 47.56 75.98 48.59 75.98C50.24 75.99 52.2 74.44 52.57 72.62C52.94 70.79 52 69.23 50.23 69.22C43.22 69.19 36.22 69.16 29.22 69.13C29.33 69 29.44 68.86 29.56 68.74C29.63 68.66 29.7 68.59 29.77 68.51C29.78 68.5 29.78 68.5 29.79 68.49C30.04 68.26 30.28 68.01 30.53 67.78C31.09 67.26 31.67 66.75 32.26 66.28C32.84 65.8 33.45 65.37 34.05 64.92C34.06 64.91 34.06 64.91 34.07 64.9C34.22 64.8 34.37 64.7 34.53 64.6C34.91 64.35 35.31 64.11 35.7 63.88C37.31 62.91 38.53 60.86 37.95 59.26C37.42 57.79 35.65 56.99 33.92 58.03C28.59 61.23 23.99 65.57 20.71 71.03C18.2 75.21 17.07 79.59 16.76 83.96C16.4 89.08 17.64 93.78 19.99 97.61C22.24 101.28 25.5 104.14 28.96 106.55C32.48 109 36.32 110.99 39.99 113.24C41.8 114.34 43.56 115.5 45.23 116.79C46.04 117.42 46.83 118.07 47.59 118.77C47.93 119.08 48.26 119.42 48.59 119.74C48.65 119.81 48.71 119.88 48.78 119.94C48.96 120.14 49.15 120.35 49.32 120.56C49.97 121.32 50.57 122.12 51.12 122.97C51.38 123.37 51.62 123.79 51.86 124.22C51.92 124.34 52.01 124.47 52.08 124.61C52.05 124.55 52.04 124.52 52.09 124.65C52.16 124.81 52.23 124.97 52.3 125.13C52.46 125.5 52.6 125.89 52.74 126.27C46.59 126.25 40.44 126.22 34.29 126.19C33.23 126.18 32.18 126.18 31.12 126.17C29.47 126.17 27.51 127.71 27.14 129.54C26.77 131.37 27.71 132.92 29.48 132.93C36.93 132.97 44.38 133 51.83 133.03C52.45 133.04 53.08 133.04 53.7 133.04C53.69 133.53 53.66 134.02 53.62 134.52C53.62 134.57 53.6 134.69 53.59 134.79C53.59 134.81 53.59 134.83 53.59 134.84C53.54 135.17 53.49 135.5 53.44 135.82C53.36 136.29 53.28 136.76 53.17 137.22C53.04 137.79 52.89 138.34 52.71 138.9C52.68 138.99 52.6 139.21 52.54 139.38C52.54 139.38 52.54 139.39 52.54 139.39C52.47 139.56 52.4 139.74 52.32 139.92C52.26 140.05 52.19 140.19 52.13 140.32C49.29 140.31 46.46 140.3 43.62 140.28C41.97 140.28 40.01 141.82 39.64 143.65C39.28 145.48 40.21 147.03 41.99 147.04C43.9 147.05 45.82 147.06 47.73 147.07C47.65 147.16 47.57 147.25 47.48 147.34C47.37 147.46 46.73 148.16 47.16 147.69C47.57 147.24 47.01 147.84 46.88 147.96C46.7 148.14 46.51 148.31 46.33 148.49C45.91 148.87 45.49 149.24 45.05 149.61C44.63 149.96 44.2 150.3 43.77 150.63C43.54 150.8 43.32 150.96 43.09 151.13C43 151.19 42.92 151.24 42.84 151.3C41.75 151.94 40.71 152.64 39.6 153.22C39.03 153.53 38.45 153.81 37.87 154.08C37.57 154.22 37.26 154.36 36.96 154.49C36.83 154.55 36.7 154.61 36.56 154.66C36.57 154.66 36.21 154.81 36.09 154.86C36.07 154.86 36.05 154.87 36.04 154.88C35.85 154.95 35.66 155.02 35.48 155.09C35.14 155.21 34.81 155.33 34.47 155.45C33.72 155.7 32.97 155.94 32.22 156.15C30.51 156.65 28.9 158.54 29 160.3C29.11 162.02 30.49 163.21 32.32 162.68Z" />
		<path id="Path 2" class="shp1" d="M55.98 104.72C61.31 101.52 65.91 97.19 69.19 91.72C71.7 87.54 72.83 83.16 73.14 78.8C73.5 73.67 72.26 68.97 69.91 65.14C67.66 61.47 64.4 58.61 60.94 56.21C57.42 53.76 53.58 51.76 49.91 49.51C48.1 48.41 46.34 47.25 44.68 45.96C43.86 45.34 43.07 44.68 42.31 43.98C41.97 43.67 41.64 43.33 41.31 43.01C41.25 42.94 41.19 42.88 41.13 42.81C40.94 42.61 40.76 42.4 40.57 42.19C39.93 41.43 39.33 40.63 38.78 39.79C38.52 39.38 38.28 38.97 38.04 38.54C37.98 38.41 37.89 38.28 37.82 38.15C37.85 38.21 37.86 38.23 37.81 38.1C37.74 37.94 37.67 37.78 37.6 37.62C37.44 37.25 37.3 36.86 37.16 36.48C43.31 36.51 49.46 36.54 55.61 36.56C56.67 36.57 57.73 36.57 58.78 36.58C60.43 36.59 62.39 35.04 62.76 33.21C63.13 31.38 62.19 29.83 60.42 29.82C52.97 29.79 45.52 29.75 38.07 29.72C37.45 29.72 36.82 29.71 36.2 29.71C36.22 29.22 36.23 28.73 36.28 28.23C36.28 28.19 36.3 28.06 36.31 27.96C36.31 27.94 36.31 27.92 36.31 27.91C36.36 27.58 36.41 27.26 36.46 26.93C36.54 26.46 36.62 26 36.73 25.53C36.86 24.97 37.01 24.41 37.19 23.85C37.22 23.76 37.3 23.54 37.36 23.37C37.36 23.37 37.36 23.37 37.36 23.36C37.43 23.19 37.5 23.01 37.58 22.83C37.64 22.7 37.71 22.57 37.77 22.43C40.61 22.44 43.44 22.46 46.28 22.47C47.93 22.48 49.89 20.93 50.26 19.1C50.62 17.27 49.69 15.72 47.91 15.71C46 15.7 44.08 15.69 42.17 15.68C42.25 15.59 42.33 15.5 42.42 15.41C42.53 15.29 43.17 14.59 42.74 15.06C42.33 15.51 42.89 14.92 43.02 14.79C43.2 14.62 43.39 14.44 43.57 14.26C43.99 13.88 44.41 13.51 44.85 13.15C45.27 12.79 45.7 12.45 46.13 12.13C46.36 11.96 46.59 11.79 46.81 11.63C46.89 11.57 46.98 11.51 47.06 11.45L47.06 11.45C48.15 10.82 49.19 10.11 50.3 9.53C50.87 9.23 51.45 8.94 52.03 8.67C52.33 8.53 52.64 8.39 52.94 8.26C53.07 8.2 53.2 8.15 53.34 8.09C53.33 8.09 53.69 7.95 53.81 7.9C53.83 7.89 53.85 7.88 53.86 7.88C54.05 7.81 54.23 7.73 54.42 7.67C54.76 7.54 55.09 7.42 55.43 7.31C56.18 7.05 56.93 6.82 57.68 6.6C59.39 6.1 61 4.22 60.9 2.45C60.79 0.74 59.41 -0.46 57.58 0.07C48.21 2.8 38.97 8.52 33.49 17.88C28.99 25.57 28.53 34.78 31.44 41.3C35.16 49.64 43 54.02 50.46 58.35C54.13 60.48 57.77 62.73 60.84 65.64C61.01 65.8 61.19 65.97 61.36 66.15C61.41 66.2 61.46 66.25 61.51 66.3C61.84 66.69 62.21 67.06 62.53 67.46C63.17 68.23 63.75 69.04 64.28 69.89C64.53 70.31 64.77 70.73 64.99 71.16C65.02 71.22 65.04 71.25 65.06 71.28C65.06 71.3 65.07 71.3 65.08 71.32C65.19 71.58 65.3 71.84 65.41 72.1C65.5 72.34 65.58 72.59 65.66 72.83C63.75 72.82 61.83 72.81 59.91 72.8C58.26 72.79 56.3 74.34 55.93 76.17C55.57 78 56.5 79.55 58.27 79.56C61.07 79.57 63.86 79.59 66.65 79.6C66.65 79.66 66.65 79.72 66.65 79.78C66.64 80.09 66.62 80.39 66.6 80.7C66.58 80.86 66.54 81.28 66.53 81.4C66.4 82.36 66.24 83.34 65.99 84.3C65.9 84.66 65.8 85.02 65.68 85.38C65.63 85.55 65.56 85.73 65.51 85.9L65.5 85.91C65.37 86.24 65.23 86.56 65.09 86.88C58.19 86.85 51.3 86.81 44.4 86.78C43.37 86.78 42.34 86.77 41.31 86.77C39.66 86.76 37.7 88.31 37.33 90.13C36.97 91.96 37.9 93.52 39.67 93.53C46.68 93.56 53.68 93.59 60.68 93.62C60.56 93.75 60.46 93.89 60.34 94.02C60.27 94.09 60.2 94.17 60.13 94.24C60.12 94.25 60.12 94.25 60.11 94.26C59.86 94.49 59.62 94.74 59.37 94.97C58.81 95.5 58.23 96 57.64 96.47C57.06 96.95 56.45 97.38 55.85 97.83C55.84 97.84 55.84 97.84 55.83 97.85C55.68 97.95 55.53 98.05 55.37 98.15C54.99 98.4 54.6 98.64 54.2 98.87C52.59 99.84 51.37 101.89 51.95 103.49C52.48 104.96 54.25 105.76 55.98 104.72ZM33.4 142.12C33.77 140.29 32.83 138.73 31.06 138.73C23.24 138.69 15.42 138.65 7.61 138.62C7.28 138.62 6.96 138.61 6.64 138.61C6.64 138.54 6.64 138.48 6.64 138.41C6.65 138.18 6.67 137.95 6.69 137.72C6.7 137.72 6.79 137.01 6.81 136.9C7.02 135.69 7.39 134.49 7.8 133.29C7.85 133.15 8.05 132.61 8.09 132.51C8.2 132.23 8.32 131.96 8.44 131.68C8.49 131.57 8.55 131.45 8.6 131.33L17.45 131.38C19.11 131.38 21.07 129.84 21.43 128.01C21.8 126.18 20.86 124.63 19.09 124.62C17.01 124.61 14.93 124.6 12.85 124.59C13.1 124.29 13.34 123.99 13.6 123.7C13.76 123.52 13.93 123.35 14.09 123.17C14.17 123.1 14.47 122.78 14.56 122.7C15.05 122.21 15.55 121.75 16.07 121.29C17.04 120.44 18.04 119.64 19.07 118.88C19.37 118.66 19.66 118.44 19.97 118.23C20.04 118.18 20.39 117.95 20.43 117.92C20.94 117.59 21.45 117.25 21.98 116.92C23.58 115.93 24.81 113.92 24.23 112.31C23.71 110.86 21.91 110 20.2 111.07C15.01 114.31 10 118.33 6.38 123.53C2.23 129.49 -0.34 136.5 0.15 142.87C0.27 144.34 1.2 145.34 2.65 145.32C2.63 145.33 2.62 145.35 2.6 145.36C10.42 145.4 18.23 145.43 26.05 145.47C27.17 145.47 28.3 145.48 29.42 145.48C31.07 145.49 33.03 143.94 33.4 142.12Z" />
		<path id="Path 3" class="shp0" d="M69.7 51.68C74.89 48.45 79.9 44.43 83.52 39.22C87.67 33.26 90.24 26.25 89.75 19.89C89.63 18.41 88.7 17.41 87.25 17.43C87.27 17.42 87.29 17.41 87.3 17.39C79.49 17.36 71.67 17.32 63.85 17.29C62.73 17.28 61.6 17.27 60.48 17.27C58.83 17.26 56.87 18.81 56.5 20.63C56.14 22.46 57.07 24.02 58.84 24.03C66.66 24.06 74.48 24.1 82.29 24.14C82.62 24.14 82.94 24.14 83.26 24.14C83.26 24.21 83.26 24.28 83.26 24.35C83.25 24.57 83.23 24.8 83.21 25.03C83.2 25.03 83.11 25.75 83.09 25.86C82.88 27.06 82.51 28.26 82.1 29.47C82.05 29.61 81.85 30.14 81.81 30.24C81.7 30.52 81.58 30.8 81.46 31.07C81.41 31.19 81.35 31.3 81.3 31.42C78.35 31.4 75.4 31.39 72.45 31.38C70.79 31.37 68.83 32.91 68.47 34.74C68.1 36.57 69.04 38.13 70.81 38.13L77.05 38.16C76.8 38.46 76.56 38.76 76.3 39.05C76.14 39.23 75.97 39.41 75.8 39.59C75.73 39.66 75.43 39.97 75.34 40.06C74.85 40.54 74.35 41.01 73.83 41.46C72.86 42.31 71.86 43.12 70.83 43.87C70.54 44.09 70.24 44.31 69.94 44.52C69.86 44.57 69.52 44.8 69.48 44.83C68.96 45.16 68.45 45.5 67.92 45.83C66.33 46.83 65.09 48.83 65.67 50.45C66.19 51.89 67.99 52.75 69.7 51.68Z" />
		<text id="DNA " style="transform: matrix(1,0,-0.274,1,100.848,144.33)" >
			<tspan x="0" y="0" class="txt2">DNA</tspan>
		</text>
		<text id="Drug  " style="transform: matrix(1,0,-0.274,1,328.757,144.33)" >
			<tspan x="0" y="0" class="txt3">DRug </tspan>
		</text>
		<text id="USA " style="transform: matrix(1,0,-0.274,1,611.582,144.33)" >
			<tspan x="0" y="0" class="txt2">USA</tspan>
		</text>
	</g>
</svg>