<svg xmlns="http://www.w3.org/2000/svg" viewBox="0 0 1000 293" width="1000" height="293">
	<defs>
		<clipPath clipPathUnits="userSpaceOnUse" id="cp1">
			<path d="M0 0L1000 0L1000 293L0 293Z" />
		</clipPath>
	</defs>
	<style>
		tspan { white-space:pre }
		.shp0 { fill: #d1282a } 
		.shp1 { fill: #142b64 } 
		.txt2 { font-size: 165px;fill: #142b64;font-weight: 400;font-family: "BebasNeueRegular", "Bebas Neue" } 
		.txt3 { font-size: 165px;fill: #d1282a;font-weight: 400;font-family: "BebasNeueRegular", "Bebas Neue" } 
	</style>
	<g id="Page 1" clip-path="url(#cp1)">
		<path id="Path 1" class="shp0" d="M122.32 231.68C131.69 228.95 140.93 223.24 146.41 213.87C150.9 206.18 151.37 196.97 148.46 190.46C144.74 182.11 136.9 177.73 129.44 173.4C125.77 171.27 122.13 169.02 119.06 166.12C118.89 165.95 118.71 165.78 118.54 165.61C118.49 165.55 118.44 165.5 118.39 165.45C118.06 165.06 117.69 164.69 117.37 164.29C116.73 163.53 116.15 162.72 115.62 161.86C115.37 161.45 115.14 161.02 114.91 160.59C114.88 160.54 114.86 160.5 114.84 160.47C114.84 160.46 114.83 160.45 114.82 160.43C114.71 160.17 114.6 159.91 114.49 159.65C114.4 159.41 114.32 159.17 114.24 158.92C116.15 158.93 118.07 158.94 119.99 158.95C121.64 158.96 123.6 157.41 123.97 155.58C124.33 153.75 123.4 152.2 121.63 152.19C118.83 152.18 116.04 152.17 113.25 152.15C113.25 152.09 113.25 152.03 113.25 151.97C113.26 151.67 113.28 151.36 113.3 151.05C113.32 150.89 113.36 150.47 113.37 150.35C113.5 149.39 113.66 148.42 113.91 147.45C114 147.09 114.11 146.73 114.22 146.37C114.27 146.2 114.34 146.03 114.39 145.85C114.4 145.85 114.4 145.85 114.4 145.84C114.53 145.51 114.67 145.19 114.82 144.88C121.71 144.9 128.6 144.94 135.5 144.97C136.53 144.97 137.56 144.98 138.59 144.98C140.24 144.99 142.2 143.44 142.57 141.62C142.94 139.79 142 138.23 140.23 138.22C133.22 138.19 126.22 138.16 119.22 138.13C119.33 138 119.44 137.86 119.56 137.74C119.63 137.66 119.7 137.59 119.77 137.51C119.78 137.5 119.78 137.5 119.79 137.49C120.04 137.26 120.28 137.01 120.53 136.78C121.09 136.26 121.67 135.75 122.26 135.28C122.84 134.8 123.45 134.37 124.05 133.92C124.06 133.91 124.06 133.91 124.07 133.9C124.22 133.8 124.37 133.7 124.53 133.6C124.91 133.35 125.31 133.11 125.7 132.88C127.31 131.91 128.53 129.86 127.95 128.26C127.42 126.79 125.65 125.99 123.92 127.03C118.59 130.23 113.99 134.57 110.71 140.03C108.2 144.21 107.07 148.59 106.76 152.96C106.4 158.08 107.64 162.78 109.99 166.61C112.24 170.28 115.5 173.14 118.96 175.55C122.48 178 126.32 179.99 129.99 182.24C131.8 183.34 133.56 184.5 135.23 185.79C136.04 186.42 136.83 187.07 137.59 187.77C137.93 188.08 138.26 188.42 138.59 188.74C138.65 188.81 138.71 188.88 138.78 188.94C138.96 189.14 139.15 189.35 139.32 189.56C139.97 190.32 140.57 191.12 141.12 191.97C141.38 192.37 141.62 192.79 141.86 193.22C141.92 193.34 142.01 193.47 142.08 193.61C142.05 193.55 142.04 193.52 142.09 193.65C142.16 193.81 142.23 193.97 142.3 194.13C142.46 194.5 142.6 194.89 142.74 195.27C136.59 195.25 130.44 195.22 124.29 195.19C123.23 195.18 122.18 195.18 121.12 195.17C119.47 195.17 117.51 196.71 117.14 198.54C116.77 200.37 117.71 201.92 119.48 201.93C126.93 201.97 134.38 202 141.83 202.03C142.45 202.04 143.08 202.04 143.7 202.04C143.69 202.53 143.66 203.02 143.62 203.52C143.62 203.57 143.6 203.69 143.59 203.79C143.59 203.81 143.59 203.83 143.59 203.84C143.54 204.17 143.49 204.5 143.44 204.82C143.36 205.29 143.28 205.76 143.17 206.22C143.04 206.79 142.89 207.34 142.71 207.9C142.68 207.99 142.6 208.21 142.54 208.38C142.54 208.38 142.54 208.39 142.54 208.39C142.47 208.56 142.4 208.74 142.32 208.92C142.26 209.05 142.19 209.19 142.13 209.32C139.29 209.31 136.46 209.3 133.62 209.28C131.97 209.28 130.01 210.82 129.64 212.65C129.28 214.48 130.21 216.03 131.99 216.04C133.9 216.05 135.82 216.06 137.73 216.07C137.65 216.16 137.57 216.25 137.48 216.34C137.37 216.46 136.73 217.16 137.16 216.69C137.57 216.24 137.01 216.84 136.88 216.96C136.7 217.14 136.51 217.31 136.33 217.49C135.91 217.87 135.49 218.24 135.05 218.61C134.63 218.96 134.2 219.3 133.77 219.63C133.54 219.8 133.32 219.96 133.09 220.13C133 220.19 132.92 220.24 132.84 220.3C131.75 220.94 130.71 221.64 129.6 222.22C129.03 222.53 128.45 222.81 127.87 223.08C127.57 223.22 127.26 223.36 126.96 223.49C126.83 223.55 126.7 223.61 126.56 223.66C126.57 223.66 126.21 223.81 126.09 223.86C126.07 223.86 126.05 223.87 126.04 223.88C125.85 223.95 125.66 224.02 125.48 224.09C125.14 224.21 124.81 224.33 124.47 224.45C123.72 224.7 122.97 224.94 122.22 225.15C120.51 225.65 118.9 227.54 119 229.3C119.11 231.02 120.49 232.21 122.32 231.68Z" />
		<path id="Path 2" class="shp1" d="M145.98 173.72C151.31 170.52 155.91 166.19 159.19 160.72C161.7 156.54 162.83 152.16 163.14 147.8C163.5 142.67 162.26 137.97 159.91 134.14C157.66 130.47 154.4 127.61 150.94 125.21C147.42 122.76 143.58 120.76 139.91 118.51C138.1 117.41 136.34 116.25 134.68 114.96C133.86 114.34 133.07 113.68 132.31 112.98C131.97 112.67 131.64 112.33 131.31 112.01C131.25 111.94 131.19 111.88 131.13 111.81C130.94 111.61 130.76 111.4 130.57 111.19C129.93 110.43 129.33 109.63 128.78 108.79C128.52 108.38 128.28 107.97 128.04 107.54C127.98 107.41 127.89 107.28 127.82 107.15C127.85 107.21 127.86 107.23 127.81 107.1C127.74 106.94 127.67 106.78 127.6 106.62C127.44 106.25 127.3 105.86 127.16 105.48C133.31 105.51 139.46 105.54 145.61 105.56C146.67 105.57 147.73 105.57 148.78 105.58C150.43 105.59 152.39 104.04 152.76 102.21C153.13 100.38 152.19 98.83 150.42 98.82C142.97 98.79 135.52 98.75 128.07 98.72C127.45 98.72 126.82 98.71 126.2 98.71C126.22 98.22 126.23 97.73 126.28 97.23C126.28 97.19 126.3 97.06 126.31 96.96C126.31 96.94 126.31 96.92 126.31 96.91C126.36 96.58 126.41 96.26 126.46 95.93C126.54 95.46 126.62 95 126.73 94.53C126.86 93.97 127.01 93.41 127.19 92.85C127.22 92.76 127.3 92.54 127.36 92.37C127.36 92.37 127.36 92.37 127.36 92.36C127.43 92.19 127.5 92.01 127.58 91.83C127.64 91.7 127.71 91.57 127.77 91.43C130.61 91.44 133.44 91.46 136.28 91.47C137.93 91.48 139.89 89.93 140.26 88.1C140.62 86.27 139.69 84.72 137.91 84.71C136 84.7 134.08 84.69 132.17 84.68C132.25 84.59 132.33 84.5 132.42 84.41C132.53 84.29 133.17 83.59 132.74 84.06C132.33 84.51 132.89 83.92 133.02 83.79C133.2 83.62 133.39 83.44 133.57 83.26C133.99 82.88 134.41 82.51 134.85 82.15C135.27 81.79 135.7 81.45 136.13 81.13C136.36 80.96 136.59 80.79 136.81 80.63C136.89 80.57 136.98 80.51 137.06 80.45L137.06 80.45C138.15 79.82 139.19 79.11 140.3 78.53C140.87 78.23 141.45 77.94 142.03 77.67C142.33 77.53 142.64 77.39 142.94 77.26C143.07 77.2 143.2 77.15 143.34 77.09C143.33 77.09 143.69 76.95 143.81 76.9C143.83 76.89 143.85 76.88 143.86 76.88C144.05 76.81 144.23 76.73 144.42 76.67C144.76 76.54 145.09 76.42 145.43 76.31C146.18 76.05 146.93 75.82 147.68 75.6C149.39 75.1 151 73.22 150.9 71.45C150.79 69.74 149.41 68.54 147.58 69.07C138.21 71.8 128.97 77.52 123.49 86.88C118.99 94.57 118.53 103.78 121.44 110.3C125.16 118.64 133 123.02 140.46 127.35C144.13 129.48 147.77 131.73 150.84 134.64C151.01 134.8 151.19 134.97 151.36 135.15C151.41 135.2 151.46 135.25 151.51 135.3C151.84 135.69 152.21 136.06 152.53 136.46C153.17 137.23 153.75 138.04 154.28 138.89C154.53 139.31 154.77 139.73 154.99 140.16C155.02 140.22 155.04 140.25 155.06 140.28C155.06 140.3 155.07 140.3 155.08 140.32C155.19 140.58 155.3 140.84 155.41 141.1C155.5 141.34 155.58 141.59 155.66 141.83C153.75 141.82 151.83 141.81 149.91 141.8C148.26 141.79 146.3 143.34 145.93 145.17C145.57 147 146.5 148.55 148.27 148.56C151.07 148.57 153.86 148.59 156.65 148.6C156.65 148.66 156.65 148.72 156.65 148.78C156.64 149.09 156.62 149.39 156.6 149.7C156.58 149.86 156.54 150.28 156.53 150.4C156.4 151.36 156.24 152.34 155.99 153.3C155.9 153.66 155.8 154.02 155.68 154.38C155.63 154.55 155.56 154.73 155.51 154.9L155.5 154.91C155.37 155.24 155.23 155.56 155.09 155.88C148.19 155.85 141.3 155.81 134.4 155.78C133.37 155.78 132.34 155.77 131.31 155.77C129.66 155.76 127.7 157.31 127.33 159.13C126.97 160.96 127.9 162.52 129.67 162.53C136.68 162.56 143.68 162.59 150.68 162.62C150.56 162.75 150.46 162.89 150.34 163.02C150.27 163.09 150.2 163.17 150.13 163.24C150.12 163.25 150.12 163.25 150.11 163.26C149.86 163.49 149.62 163.74 149.37 163.97C148.81 164.5 148.23 165 147.64 165.47C147.06 165.95 146.45 166.38 145.85 166.83C145.84 166.84 145.84 166.84 145.83 166.85C145.68 166.95 145.53 167.05 145.37 167.15C144.99 167.4 144.6 167.64 144.2 167.87C142.59 168.84 141.37 170.89 141.95 172.49C142.48 173.96 144.25 174.76 145.98 173.72ZM123.4 211.12C123.77 209.29 122.83 207.73 121.06 207.73C113.24 207.69 105.42 207.65 97.61 207.62C97.28 207.62 96.96 207.61 96.64 207.61C96.64 207.54 96.64 207.48 96.64 207.41C96.65 207.18 96.67 206.95 96.69 206.72C96.7 206.72 96.79 206.01 96.81 205.9C97.02 204.69 97.39 203.49 97.8 202.29C97.85 202.15 98.05 201.61 98.09 201.51C98.2 201.23 98.32 200.96 98.44 200.68C98.49 200.57 98.55 200.45 98.6 200.33L107.45 200.38C109.11 200.38 111.07 198.84 111.43 197.01C111.8 195.18 110.86 193.63 109.09 193.62C107.01 193.61 104.93 193.6 102.85 193.59C103.1 193.29 103.34 192.99 103.6 192.7C103.76 192.52 103.93 192.35 104.09 192.17C104.17 192.1 104.47 191.78 104.56 191.7C105.05 191.21 105.55 190.75 106.07 190.29C107.04 189.44 108.04 188.64 109.07 187.88C109.37 187.66 109.66 187.44 109.97 187.23C110.04 187.18 110.39 186.95 110.43 186.92C110.94 186.59 111.45 186.25 111.98 185.92C113.58 184.93 114.81 182.92 114.23 181.31C113.71 179.86 111.91 179 110.2 180.07C105.01 183.31 100 187.33 96.38 192.53C92.23 198.49 89.66 205.5 90.15 211.87C90.27 213.34 91.2 214.34 92.65 214.32C92.63 214.33 92.62 214.35 92.6 214.36C100.42 214.4 108.23 214.43 116.05 214.47C117.17 214.47 118.3 214.48 119.42 214.48C121.07 214.49 123.03 212.94 123.4 211.12Z" />
		<path id="Path 3" class="shp0" d="M159.7 120.68C164.89 117.45 169.9 113.43 173.52 108.22C177.67 102.26 180.24 95.25 179.75 88.89C179.63 87.41 178.7 86.41 177.25 86.43C177.27 86.42 177.29 86.41 177.3 86.39C169.49 86.36 161.67 86.32 153.85 86.29C152.73 86.28 151.6 86.27 150.48 86.27C148.83 86.26 146.87 87.81 146.5 89.63C146.14 91.46 147.07 93.02 148.84 93.03C156.66 93.06 164.48 93.1 172.29 93.14C172.62 93.14 172.94 93.14 173.26 93.14C173.26 93.21 173.26 93.28 173.26 93.35C173.25 93.57 173.23 93.8 173.21 94.03C173.2 94.03 173.11 94.75 173.09 94.86C172.88 96.06 172.51 97.26 172.1 98.47C172.05 98.61 171.85 99.14 171.81 99.24C171.7 99.52 171.58 99.8 171.46 100.07C171.41 100.19 171.35 100.3 171.3 100.42C168.35 100.4 165.4 100.39 162.45 100.38C160.79 100.37 158.83 101.91 158.47 103.74C158.1 105.57 159.04 107.13 160.81 107.13L167.05 107.16C166.8 107.46 166.56 107.76 166.3 108.05C166.14 108.23 165.97 108.41 165.8 108.59C165.73 108.66 165.43 108.97 165.34 109.06C164.85 109.54 164.35 110.01 163.83 110.46C162.86 111.31 161.86 112.12 160.83 112.87C160.54 113.09 160.24 113.31 159.94 113.52C159.86 113.57 159.52 113.8 159.48 113.83C158.96 114.16 158.45 114.5 157.92 114.83C156.33 115.83 155.09 117.83 155.67 119.45C156.19 120.89 157.99 121.75 159.7 120.68Z" />
		<text id="DNA " style="transform: matrix(1,0,-0.274,1,190.848,213.33)" >
			<tspan x="0" y="0" class="txt2">DNA</tspan>
		</text>
		<text id="DRug  " style="transform: matrix(1,0,-0.274,1,418.757,213.33)" >
			<tspan x="0" y="0" class="txt3">DRug </tspan>
		</text>
		<text id="USA " style="transform: matrix(1,0,-0.274,1,701.582,213.33)" >
			<tspan x="0" y="0" class="txt2">USA</tspan>
		</text>
	</g>
</svg>