<svg xmlns="http://www.w3.org/2000/svg" viewBox="0 0 115 115"><defs><style>.a{fill:#c02032}.b{fill:#212f64}</style></defs><title>icon-fitted-square</title><path d="M48.61,114.91c6.59-1.93,13.1-6,17-12.57C68.74,96.91,69.06,90.41,67,85.8c-2.62-5.89-8.14-9-13.39-12a38.62,38.62,0,0,1-7.31-5.14l-.37-.36-.1-.11c-.24-.28-.49-.54-.72-.82a14.93,14.93,0,0,1-1.23-1.72c-.18-.29-.34-.59-.5-.9l0-.08v0l-.24-.55c-.06-.17-.11-.34-.17-.51l4,0a3.17,3.17,0,0,0,2.8-2.38,1.8,1.8,0,0,0-1.65-2.4l-5.9,0v-.13c0-.22,0-.43,0-.65s0-.41.05-.5a18.81,18.81,0,0,1,.37-2c.07-.25.14-.5.22-.76l.12-.36h0c.09-.23.19-.46.29-.68l14.57.06h2.17a3.14,3.14,0,0,0,2.81-2.37c.25-1.3-.41-2.39-1.65-2.4l-14.8-.07.24-.27.15-.16,0,0c.17-.16.34-.34.52-.5.39-.37.8-.72,1.21-1.06s.84-.64,1.26-1h0l.32-.21c.27-.18.55-.35.83-.51,1.13-.69,2-2.14,1.58-3.26A1.87,1.87,0,0,0,49.73,41a26.79,26.79,0,0,0-9.3,9.18,20.32,20.32,0,0,0-2.78,9.12A16.22,16.22,0,0,0,39.93,69a21.77,21.77,0,0,0,6.31,6.3C48.72,77,51.43,78.42,54,80a40.42,40.42,0,0,1,3.68,2.51c.58.44,1.13.91,1.67,1.4.24.22.47.45.71.69l.12.13.39.44a14.94,14.94,0,0,1,1.26,1.7c.19.29.36.58.52.88,0,.09.11.18.16.28s0-.06,0,0l.15.34c.11.26.21.53.3.8l-13,0-2.23,0A3.17,3.17,0,0,0,45,91.51a1.8,1.8,0,0,0,1.65,2.4L62.34,94h1.32c0,.34,0,.69,0,1a.84.84,0,0,0,0,.19v0c0,.23-.06.46-.1.69s-.12.66-.19,1-.2.79-.33,1.18l-.11.34h0l-.15.37c0,.1-.09.19-.13.29l-6,0a3.14,3.14,0,0,0-2.81,2.37c-.25,1.3.41,2.39,1.65,2.4l4.05,0-.17.19-.23.25c.29-.32-.11.1-.2.19l-.39.37c-.29.27-.59.54-.9.79s-.6.49-.9.72l-.48.35-.17.13h0c-.76.45-1.5.94-2.28,1.36-.4.21-.81.41-1.22.6l-.63.29-.28.12-.34.14h0l-.4.15-.71.25c-.53.19-1.06.35-1.59.51a3.22,3.22,0,0,0-2.26,2.92,1.76,1.76,0,0,0,2.34,1.68" class="a"/><path d="M65.27,74a26.87,26.87,0,0,0,9.3-9.18,20.36,20.36,0,0,0,2.78-9.13A16.22,16.22,0,0,0,75.07,46a21.89,21.89,0,0,0-6.31-6.3C66.28,38,63.57,36.59,61,35a42.47,42.47,0,0,1-3.68-2.5c-.58-.45-1.13-.91-1.67-1.4l-.71-.69-.12-.14c-.14-.14-.26-.29-.39-.44a14.11,14.11,0,0,1-1.26-1.7,9.68,9.68,0,0,1-.52-.88c0-.09-.11-.18-.16-.28v0l-.15-.34q-.16-.41-.3-.81l13,.06h2.23A3.17,3.17,0,0,0,70,23.49c.26-1.29-.4-2.39-1.65-2.39L52.66,21H51.34c0-.35,0-.7,0-1a1,1,0,0,0,0-.2v0c0-.23.06-.47.1-.7s.12-.66.19-1,.2-.79.33-1.18l.11-.34h0l.15-.38.13-.28,6,0a3.14,3.14,0,0,0,2.81-2.37c.25-1.29-.41-2.39-1.65-2.4l-4.05,0,.18-.19c.07-.09.52-.58.22-.25s.11-.1.2-.18l.39-.38c.29-.27.59-.53.9-.79s.6-.49.9-.72l.48-.35L59,8.12c.76-.44,1.5-.94,2.28-1.35.4-.22.81-.42,1.22-.61l.64-.29.27-.12.34-.14h0l.4-.15.71-.25c.53-.18,1.06-.35,1.59-.5a3.23,3.23,0,0,0,2.26-2.93A1.76,1.76,0,0,0,66.39.09c-6.59,1.93-13.1,6-17,12.58C46.26,18.09,45.94,24.6,48,29.2c2.62,5.89,8.14,9,13.39,12a39.13,39.13,0,0,1,7.31,5.15l.37.36.1.1c.24.29.49.54.72.82a15.85,15.85,0,0,1,1.23,1.72c.18.29.34.59.5.9l0,.08s0,0,0,0l.24.55c.06.17.11.34.18.52l-4,0a3.14,3.14,0,0,0-2.81,2.37c-.26,1.3.4,2.39,1.65,2.4l5.9,0v.13c0,.21,0,.43,0,.64s0,.41,0,.5a18.81,18.81,0,0,1-.37,2c-.07.25-.14.51-.22.76s-.09.24-.13.37h0l-.29.68-14.57-.07H54.94a3.13,3.13,0,0,0-2.8,2.38c-.26,1.29.4,2.38,1.64,2.39l14.8.07-.24.28-.15.15,0,0c-.17.16-.34.34-.52.5-.39.37-.8.72-1.21,1.06s-.84.64-1.26,1h0l-.32.22-.83.51c-1.13.68-2,2.13-1.58,3.26a1.87,1.87,0,0,0,2.84.87" class="b"/><path d="M49.37,100.4c.25-1.3-.41-2.4-1.65-2.4L31.2,97.92h-.68v-.15c0-.16,0-.32,0-.48,0,0,.07-.51.08-.58a17,17,0,0,1,.7-2.55c0-.1.17-.48.2-.55s.16-.39.25-.59.08-.16.11-.24l6.24,0a3.17,3.17,0,0,0,2.8-2.38c.26-1.29-.4-2.39-1.65-2.39l-4.4,0c.18-.21.35-.43.53-.63s.24-.25.35-.38l.33-.33c.35-.34.7-.67,1.06-1,.68-.6,1.39-1.17,2.11-1.71l.64-.45.32-.22c.36-.24.72-.48,1.09-.71,1.13-.7,2-2.11,1.59-3.26a1.88,1.88,0,0,0-2.84-.87,32.63,32.63,0,0,0-9.73,8.8c-2.92,4.21-4.73,9.16-4.39,13.65a1.74,1.74,0,0,0,1.73,1.76l16.51.08h2.37a3.16,3.16,0,0,0,2.81-2.37" class="b"/><path d="M74.93,36.54a32.63,32.63,0,0,0,9.73-8.8c2.92-4.2,4.73-9.16,4.39-13.65a1.7,1.7,0,0,0-1.73-1.76l-16.51-.08H68.44a3.17,3.17,0,0,0-2.81,2.38C65.38,15.91,66,17,67.28,17l16.52.08h.68v.15c0,.16,0,.32,0,.48,0,0-.07.51-.08.58a16.64,16.64,0,0,1-.7,2.55c0,.1-.17.48-.2.55s-.16.39-.25.59-.08.16-.11.24l-6.24,0a3.17,3.17,0,0,0-2.8,2.38A1.8,1.8,0,0,0,75.71,27h4.4c-.18.22-.35.43-.53.63l-.35.38c-.06.05-.27.27-.33.33-.35.34-.7.67-1.06,1-.68.6-1.39,1.17-2.12,1.71-.2.15-.41.31-.63.46l-.32.21c-.36.24-.72.48-1.09.71-1.13.7-2,2.12-1.59,3.26a1.9,1.9,0,0,0,2.84.87" class="a"/></svg>